<?xml version="1.0" encoding="iso-8859-1"?>
<!-- Generator: Adobe Illustrator 16.0.0, SVG Export Plug-In . SVG Version: 6.00 Build 0)  -->
<!DOCTYPE svg PUBLIC "-//W3C//DTD SVG 1.1//EN" "http://www.w3.org/Graphics/SVG/1.1/DTD/svg11.dtd">
<svg version="1.1" id="Capa_1" xmlns="http://www.w3.org/2000/svg" xmlns:xlink="http://www.w3.org/1999/xlink" x="0px" y="0px"
	 width="442.86px" height="442.86px" viewBox="0 0 442.86 442.86" style="enable-background:new 0 0 442.86 442.86;"
	 xml:space="preserve">
<g>
	<g>
		<g>
			<path d="M248.401,143.233l-25.488,25.353h-0.02l10.76,71.928h95.524c-5.771-25.024-19.769-58.354-19.769-58.354
				c-2.127-5.084-7.242-8.343-12.129-10.348l-33.019-15.202L248.401,143.233z"/>
			<path d="M219.966,168.583h-0.017l-25.489-25.351l-15.862,13.377l-33.019,15.202c-4.885,2.005-9.686,5.047-12.128,10.348
				c0,0-13.998,33.327-19.768,58.353h95.524L219.966,168.583z"/>
			<path d="M220.391,142.751c25.184,0,58.967-31.465,59.542-84.228C280.3,21.91,262.862,0,220.391,0
				c-42.475,0-59.914,21.91-59.542,58.523C161.422,111.286,190.915,142.751,220.391,142.751z M208.424,73.229
				c30.792,3.279,57.636-39.785,57.203-1.228c-0.263,23.083-21.672,57.937-45.231,57.937c-24.727,0-41.787-28.965-45.229-57.923
				C171.433,40.612,229.072,47.767,208.424,73.229z"/>
		</g>
		<g>
			<path d="M206.724,365.242c-2.594-1.933-5.154-3.93-7.625-5.949c0.614,6.098,1.694,11.822,3.219,17.049
				c3.632-1.826,7.398-3.92,11.214-6.235C211.232,368.529,208.947,366.896,206.724,365.242z"/>
			<path d="M190.973,352.279c-4.596,4.535-8.518,8.967-11.663,13.18c-7.819,10.473-7.98,15.855-6.842,17.385
				c0.715,0.959,2.46,1.488,4.915,1.488c4.581,0,10.989-1.73,18.56-5.002c-2.4-7.869-3.876-16.986-4.279-26.425
				C191.431,352.697,191.202,352.488,190.973,352.279z"/>
			<path d="M213.532,324.854c-3.815-2.315-7.582-4.409-11.214-6.235c-1.525,5.229-2.605,10.952-3.219,17.049
				c2.471-2.02,5.031-4.016,7.625-5.949C208.945,328.064,211.229,326.432,213.532,324.854z"/>
			<path d="M235.296,311.977c-0.296-0.729-0.596-1.435-0.896-2.098c-4.052-8.972-9.316-14.117-14.447-14.117
				s-10.396,5.146-14.447,14.117c-0.3,0.662-0.601,1.366-0.895,2.098c4.95,2.438,10.107,5.351,15.342,8.652
				C225.188,317.326,230.345,314.415,235.296,311.977z"/>
			<path d="M186.912,315.284c-2.803,0-5.326-1.792-6.269-4.405c-1.189-0.169-2.286-0.252-3.262-0.252
				c-2.454,0-4.2,0.528-4.915,1.487c-1.138,1.529-0.979,6.912,6.842,17.385c3.145,4.214,7.067,8.646,11.663,13.181
				c0.229-0.209,0.459-0.418,0.69-0.627c0.403-9.438,1.879-18.555,4.279-26.424c-1.608-0.695-3.203-1.334-4.752-1.904
				C189.99,314.734,188.485,315.284,186.912,315.284z"/>
			<path d="M233.18,329.717c2.596,1.933,5.155,3.931,7.626,5.948c-0.613-6.097-1.693-11.819-3.218-17.049
				c-3.632,1.826-7.398,3.92-11.213,6.236C228.678,326.434,230.964,328.064,233.18,329.717z"/>
			<path d="M204.611,382.984c0.296,0.729,0.595,1.434,0.895,2.096c4.051,8.973,9.316,14.117,14.447,14.117
				s10.396-5.146,14.447-14.117c0.3-0.662,0.6-1.367,0.896-2.098c-4.95-2.439-10.106-5.351-15.342-8.652
				C214.718,377.633,209.56,380.543,204.611,382.984z"/>
			<path d="M226.375,370.105c3.812,2.315,7.579,4.407,11.213,6.235c1.522-5.229,2.604-10.953,3.218-17.05
				c-2.47,2.019-5.029,4.017-7.626,5.948C230.962,366.895,228.677,368.527,226.375,370.105z"/>
			<path d="M358.562,260.062c-2.089-2.299-5.05-3.607-8.156-3.607H92.453c-3.106,0-6.068,1.312-8.156,3.607
				c-2.09,2.301-3.112,5.371-2.816,8.464l22.045,164.36c0.542,5.656,5.292,9.974,10.973,9.974H328.36
				c5.684,0,10.434-4.316,10.975-9.974l22.045-164.36C361.676,265.434,360.652,262.362,358.562,260.062z M271.302,330.016
				c0,3.679-2.991,6.668-6.667,6.668c-0.244,0-0.496-0.018-0.761-0.049c-2.848,3.521-6.169,7.166-9.888,10.844
				c4.786,4.736,8.889,9.382,12.192,13.812c8.516,11.404,10.884,20.297,6.848,25.717c-2.121,2.851-5.654,4.295-10.502,4.295
				c-5.374,0-12.589-1.865-20.894-5.399c-0.293,0.719-0.588,1.403-0.879,2.047c-5.305,11.75-12.692,18.221-20.8,18.221
				c-8.108,0-15.494-6.471-20.799-18.221c-0.291-0.644-0.587-1.328-0.88-2.047c-8.304,3.534-15.517,5.399-20.891,5.399
				c-4.851,0-8.383-1.444-10.506-4.295c-4.036-5.42-1.668-14.312,6.848-25.717c3.307-4.43,7.408-9.074,12.194-13.812
				c-4.786-4.733-8.888-9.381-12.194-13.81c-8.516-11.403-10.884-20.297-6.848-25.717c2.123-2.852,5.657-4.295,10.504-4.295
				c1.418,0,2.99,0.133,4.678,0.396c1.261-1.34,3.01-2.101,4.853-2.101c3.13,0,5.807,2.155,6.493,5.179
				c1.573,0.572,3.207,1.221,4.869,1.928c0.293-0.717,0.589-1.403,0.88-2.047c5.305-11.75,12.69-18.221,20.799-18.221
				c8.106,0,15.495,6.471,20.8,18.221c0.291,0.644,0.585,1.33,0.879,2.047c8.305-3.532,15.52-5.399,20.894-5.399
				c4.849,0,8.382,1.444,10.502,4.297c3.237,4.346,2.42,10.77-2.426,19.096C271.06,327.971,271.302,328.99,271.302,330.016z"/>
			<path d="M262.523,310.627c-4.579,0-10.987,1.729-18.561,5.004c2.399,7.866,3.878,16.984,4.279,26.422
				c0.23,0.209,0.46,0.418,0.688,0.627c3.562-3.517,6.742-6.991,9.455-10.342c-0.279-0.746-0.418-1.522-0.418-2.322
				c0-3.676,2.99-6.666,6.666-6.666c0.018,0,0.035,0,0.051,0c3.567-6.215,3.723-9.931,2.752-11.233
				C266.724,311.156,264.978,310.627,262.523,310.627z"/>
			<path d="M229.018,335.307c-2.964-2.209-6.013-4.354-9.063-6.375c-3.049,2.021-6.099,4.166-9.065,6.375
				c-4.314,3.213-8.469,6.563-12.352,9.959c-0.015,0.756-0.021,1.5-0.021,2.213c0,0.716,0.006,1.459,0.021,2.216
				c3.883,3.396,8.037,6.744,12.352,9.959c2.969,2.211,6.018,4.354,9.066,6.375c3.051-2.021,6.099-4.166,9.062-6.375
				c4.315-3.213,8.471-6.563,12.354-9.959c0.014-0.756,0.021-1.5,0.021-2.216c0-0.713-0.007-1.456-0.021-2.213
				C237.488,341.868,233.334,338.521,229.018,335.307z M219.952,358.085c-5.847,0-10.605-4.758-10.605-10.606
				c0-5.848,4.758-10.604,10.605-10.604c5.848,0,10.604,4.758,10.604,10.604C230.558,353.327,225.801,358.085,219.952,358.085z"/>
			<path d="M248.243,352.905c-0.401,9.438-1.88,18.554-4.279,26.425c7.572,3.271,13.98,5.002,18.562,5.002
				c2.453,0,4.199-0.529,4.913-1.488c1.141-1.528,0.979-6.912-6.842-17.385c-3.145-4.213-7.065-8.645-11.663-13.18
				C248.704,352.488,248.475,352.697,248.243,352.905z"/>
		</g>
	</g>
</g>
<g>
</g>
<g>
</g>
<g>
</g>
<g>
</g>
<g>
</g>
<g>
</g>
<g>
</g>
<g>
</g>
<g>
</g>
<g>
</g>
<g>
</g>
<g>
</g>
<g>
</g>
<g>
</g>
<g>
</g>
</svg>
